<svg width="76" height="76" viewBox="0 0 76 76" fill="none" xmlns="http://www.w3.org/2000/svg">
<g filter="url(#filter0_i)">
<circle cx="38" cy="38" r="38" fill="#FE7F66"/>
<circle cx="38" cy="38" r="38" fill="url(#paint0_linear)" fill-opacity="0.15"/>
</g>
<path opacity="0.5" d="M22 49H54V49C54 55.6274 48.6274 61 42 61H34C27.3726 61 22 55.6274 22 49V49Z" fill="white"/>
<mask id="mask0" mask-type="alpha" maskUnits="userSpaceOnUse" x="22" y="49" width="32" height="12">
<path opacity="0.5" d="M22 49H54V49C54 55.6274 48.6274 61 42 61H34C27.3726 61 22 55.6274 22 49V49Z" fill="white"/>
</mask>
<g mask="url(#mask0)">
<circle cx="38" cy="49" r="6" fill="white"/>
</g>
<circle opacity="0.8" cx="22" cy="30" r="6" fill="white"/>
<path opacity="0.8" d="M44.9008 28.7953C43.7171 29.9547 43.6974 31.8541 44.8568 33.0377C46.0162 34.2214 47.9156 34.241 49.0992 33.0817L44.9008 28.7953ZM57.8787 33.1213C59.0503 34.2929 60.9497 34.2929 62.1213 33.1213C63.2929 31.9497 63.2929 30.0503 62.1213 28.8787L57.8787 33.1213ZM47 30.9385C49.0992 33.0817 49.0986 33.0822 49.098 33.0828C49.0979 33.083 49.0973 33.0836 49.0969 33.0839C49.0962 33.0846 49.0955 33.0853 49.0949 33.0859C49.0936 33.0872 49.0925 33.0883 49.0915 33.0892C49.0896 33.091 49.0884 33.0922 49.0879 33.0927C49.0868 33.0937 49.0884 33.0922 49.0925 33.0883C49.1009 33.0804 49.1195 33.063 49.1477 33.0375C49.2044 32.9863 49.2987 32.9033 49.4257 32.7991C49.6826 32.5885 50.0584 32.3035 50.5158 32.0205C51.4858 31.4204 52.5473 31 53.5 31V25C50.9527 25 48.7642 26.0488 47.3592 26.918C46.6291 27.3696 46.0362 27.8193 45.6211 28.1596C45.4123 28.3309 45.2448 28.4775 45.1238 28.5869C45.0631 28.6417 45.0138 28.6875 44.9765 28.7227C44.9579 28.7403 44.9422 28.7552 44.9295 28.7674C44.9232 28.7735 44.9177 28.7789 44.9129 28.7835C44.9105 28.7858 44.9082 28.788 44.9062 28.79C44.9052 28.7909 44.9043 28.7919 44.9034 28.7928C44.9029 28.7932 44.9023 28.7938 44.902 28.7941C44.9014 28.7947 44.9008 28.7953 47 30.9385ZM53.5 31C54.4361 31 55.489 31.4229 56.4605 32.0365C56.9175 32.3251 57.2934 32.6161 57.5508 32.8315C57.678 32.9381 57.7725 33.023 57.8294 33.0755C57.8578 33.1017 57.8765 33.1195 57.885 33.1277C57.8892 33.1318 57.8908 33.1334 57.8898 33.1324C57.8893 33.1319 57.8881 33.1307 57.8863 33.1289C57.8854 33.128 57.8843 33.1269 57.883 33.1256C57.8824 33.125 57.8817 33.1243 57.881 33.1236C57.8806 33.1232 57.88 33.1227 57.8799 33.1225C57.8793 33.1219 57.8787 33.1213 60 31C62.1213 28.8787 62.1207 28.8781 62.1201 28.8774C62.1199 28.8772 62.1192 28.8766 62.1188 28.8761C62.1179 28.8752 62.1169 28.8743 62.1159 28.8733C62.1139 28.8713 62.1117 28.8691 62.1093 28.8668C62.1046 28.862 62.099 28.8566 62.0927 28.8504C62.0802 28.838 62.0645 28.8228 62.0459 28.8049C62.0088 28.7691 61.9596 28.7225 61.8991 28.6667C61.7783 28.5552 61.611 28.4057 61.4024 28.231C60.9878 27.8839 60.395 27.4249 59.6645 26.9635C58.261 26.0771 56.0639 25 53.5 25V31Z" fill="white"/>
<defs>
<filter id="filter0_i" x="0" y="-4" width="80" height="80" filterUnits="userSpaceOnUse" color-interpolation-filters="sRGB">
<feFlood flood-opacity="0" result="BackgroundImageFix"/>
<feBlend mode="normal" in="SourceGraphic" in2="BackgroundImageFix" result="shape"/>
<feColorMatrix in="SourceAlpha" type="matrix" values="0 0 0 0 0 0 0 0 0 0 0 0 0 0 0 0 0 0 127 0" result="hardAlpha"/>
<feOffset dx="4" dy="-4"/>
<feGaussianBlur stdDeviation="4"/>
<feComposite in2="hardAlpha" operator="arithmetic" k2="-1" k3="1"/>
<feColorMatrix type="matrix" values="0 0 0 0 0 0 0 0 0 0 0 0 0 0 0 0 0 0 0.08 0"/>
<feBlend mode="normal" in2="shape" result="effect1_innerShadow"/>
</filter>
<linearGradient id="paint0_linear" x1="76" y1="-2.26498e-06" x2="-6.79493e-06" y2="76" gradientUnits="userSpaceOnUse">
<stop stop-color="white"/>
<stop offset="1" stop-color="white" stop-opacity="0"/>
</linearGradient>
</defs>
</svg>
