<svg width="76" height="76" viewBox="0 0 76 76" fill="none" xmlns="http://www.w3.org/2000/svg">
<g filter="url(#filter0_i)">
<circle cx="38" cy="38" r="38" fill="#FE7F66"/>
<circle cx="38" cy="38" r="38" fill="url(#paint0_linear)" fill-opacity="0.15"/>
</g>
<path opacity="0.5" d="M54.7673 45.7851L23.2535 51.3418V51.3418C24.4043 57.8686 30.6282 62.2266 37.155 61.0758L45.0334 59.6866C51.5602 58.5357 55.9182 52.3118 54.7673 45.7851V45.7851Z" fill="white"/>
<mask id="mask0" mask-type="alpha" maskUnits="userSpaceOnUse" x="23" y="45" width="33" height="17">
<path opacity="0.5" d="M54.9355 45.7852L23.2534 51.6856V51.6856C24.3113 58.0225 30.2889 62.2061 36.6047 61.0298L45.4153 59.3889C51.7311 58.2127 55.9934 52.1221 54.9355 45.7852V45.7852Z" fill="white"/>
</mask>
<g mask="url(#mask0)">
<ellipse rx="6.09144" ry="5.90742" transform="matrix(-0.982638 0.184472 0.163362 0.986395 34.838 59.4535)" fill="white"/>
</g>
<circle opacity="0.8" r="6" transform="matrix(-1 0 0 1 23 30)" fill="white"/>
<rect opacity="0.8" x="46" y="27" width="16" height="6" rx="2" fill="white"/>
<defs>
<filter id="filter0_i" x="0" y="-4" width="80" height="80" filterUnits="userSpaceOnUse" color-interpolation-filters="sRGB">
<feFlood flood-opacity="0" result="BackgroundImageFix"/>
<feBlend mode="normal" in="SourceGraphic" in2="BackgroundImageFix" result="shape"/>
<feColorMatrix in="SourceAlpha" type="matrix" values="0 0 0 0 0 0 0 0 0 0 0 0 0 0 0 0 0 0 127 0" result="hardAlpha"/>
<feOffset dx="4" dy="-4"/>
<feGaussianBlur stdDeviation="4"/>
<feComposite in2="hardAlpha" operator="arithmetic" k2="-1" k3="1"/>
<feColorMatrix type="matrix" values="0 0 0 0 0 0 0 0 0 0 0 0 0 0 0 0 0 0 0.08 0"/>
<feBlend mode="normal" in2="shape" result="effect1_innerShadow"/>
</filter>
<linearGradient id="paint0_linear" x1="76" y1="-2.26498e-06" x2="-6.79493e-06" y2="76" gradientUnits="userSpaceOnUse">
<stop stop-color="white"/>
<stop offset="1" stop-color="white" stop-opacity="0"/>
</linearGradient>
</defs>
</svg>
