<svg width="76" height="76" viewBox="0 0 76 76" fill="none" xmlns="http://www.w3.org/2000/svg">
<g filter="url(#filter0_i)">
<circle cx="38" cy="38" r="38" fill="#FE7F66"/>
<circle cx="38" cy="38" r="38" fill="url(#paint0_linear)" fill-opacity="0.15"/>
</g>
<path opacity="0.8" d="M48.5654 53.9046C49.8383 52.8441 50.0105 50.9524 48.9499 49.6794C47.8894 48.4065 45.9977 48.2343 44.7248 49.2949L48.5654 53.9046ZM23.1727 52.8036C21.5495 52.4714 19.9643 53.518 19.6322 55.1412C19.3 56.7645 20.3466 58.3496 21.9698 58.6818L23.1727 52.8036ZM44.7248 49.2949L43.3748 50.4195L47.2154 55.0293L48.5654 53.9046L44.7248 49.2949ZM29.085 54.0134L23.1727 52.8036L21.9698 58.6818L27.8821 59.8916L29.085 54.0134ZM43.3748 50.4195C39.4052 53.7268 34.1469 55.0493 29.085 54.0134L27.8821 59.8916C34.7306 61.2931 41.8448 59.5039 47.2154 55.0293L43.3748 50.4195Z" fill="white"/>
<circle opacity="0.8" cx="17" cy="30" r="6" fill="white"/>
<circle opacity="0.8" cx="49" cy="30" r="6" fill="white"/>
<defs>
<filter id="filter0_i" x="0" y="-4" width="80" height="80" filterUnits="userSpaceOnUse" color-interpolation-filters="sRGB">
<feFlood flood-opacity="0" result="BackgroundImageFix"/>
<feBlend mode="normal" in="SourceGraphic" in2="BackgroundImageFix" result="shape"/>
<feColorMatrix in="SourceAlpha" type="matrix" values="0 0 0 0 0 0 0 0 0 0 0 0 0 0 0 0 0 0 127 0" result="hardAlpha"/>
<feOffset dx="4" dy="-4"/>
<feGaussianBlur stdDeviation="4"/>
<feComposite in2="hardAlpha" operator="arithmetic" k2="-1" k3="1"/>
<feColorMatrix type="matrix" values="0 0 0 0 0 0 0 0 0 0 0 0 0 0 0 0 0 0 0.08 0"/>
<feBlend mode="normal" in2="shape" result="effect1_innerShadow"/>
</filter>
<linearGradient id="paint0_linear" x1="76" y1="-2.26498e-06" x2="-6.79493e-06" y2="76" gradientUnits="userSpaceOnUse">
<stop stop-color="white"/>
<stop offset="1" stop-color="white" stop-opacity="0"/>
</linearGradient>
</defs>
</svg>
