<svg width="76" height="76" viewBox="0 0 76 76" fill="none" xmlns="http://www.w3.org/2000/svg">
<g filter="url(#filter0_i)">
<circle cx="38" cy="38" r="38" fill="#FE7F66"/>
<circle cx="38" cy="38" r="38" fill="url(#paint0_linear)" fill-opacity="0.15"/>
</g>
<path opacity="0.5" d="M54.7673 45.7851L23.2535 51.3418V51.3418C24.4043 57.8686 30.6282 62.2266 37.155 61.0758L45.0334 59.6866C51.5602 58.5357 55.9182 52.3118 54.7673 45.7851V45.7851Z" fill="white"/>
<mask id="mask0" mask-type="alpha" maskUnits="userSpaceOnUse" x="23" y="45" width="33" height="17">
<path opacity="0.5" d="M54.9355 45.7852L23.2534 51.6856V51.6856C24.3113 58.0225 30.2889 62.2061 36.6047 61.0298L45.4153 59.3889C51.7311 58.2127 55.9934 52.1221 54.9355 45.7852V45.7852Z" fill="white"/>
</mask>
<g mask="url(#mask0)">
<ellipse rx="6.09144" ry="5.90742" transform="matrix(-0.982638 0.184472 0.163362 0.986395 34.838 59.4535)" fill="white"/>
</g>
<circle opacity="0.8" r="6" transform="matrix(-1 0 0 1 23 30)" fill="white"/>
<path opacity="0.8" d="M62.0992 28.7953C63.2829 29.9547 63.3026 31.8541 62.1432 33.0377C60.9838 34.2214 59.0844 34.241 57.9008 33.0817L62.0992 28.7953ZM49.1213 33.1213C47.9497 34.2929 46.0503 34.2929 44.8787 33.1213C43.7071 31.9497 43.7071 30.0503 44.8787 28.8787L49.1213 33.1213ZM60 30.9385C57.9008 33.0817 57.9014 33.0822 57.902 33.0828C57.9021 33.083 57.9027 33.0836 57.9031 33.0839C57.9038 33.0846 57.9045 33.0853 57.9051 33.0859C57.9064 33.0872 57.9075 33.0883 57.9085 33.0892C57.9104 33.091 57.9116 33.0922 57.9121 33.0927C57.9132 33.0937 57.9116 33.0922 57.9075 33.0883C57.8991 33.0804 57.8805 33.063 57.8523 33.0375C57.7956 32.9863 57.7013 32.9033 57.5743 32.7991C57.3174 32.5885 56.9416 32.3035 56.4842 32.0205C55.5142 31.4204 54.4527 31 53.5 31V25C56.0473 25 58.2358 26.0488 59.6408 26.918C60.3709 27.3696 60.9638 27.8193 61.3789 28.1596C61.5877 28.3309 61.7552 28.4775 61.8762 28.5869C61.9369 28.6417 61.9862 28.6875 62.0235 28.7227C62.0421 28.7403 62.0578 28.7552 62.0705 28.7674C62.0768 28.7735 62.0823 28.7789 62.0871 28.7835C62.0895 28.7858 62.0918 28.788 62.0938 28.79C62.0948 28.7909 62.0957 28.7919 62.0966 28.7928C62.0971 28.7932 62.0977 28.7938 62.098 28.7941C62.0986 28.7947 62.0992 28.7953 60 30.9385ZM53.5 31C52.5639 31 51.511 31.4229 50.5395 32.0365C50.0825 32.3251 49.7066 32.6161 49.4492 32.8315C49.322 32.9381 49.2275 33.023 49.1706 33.0755C49.1422 33.1017 49.1235 33.1195 49.115 33.1277C49.1108 33.1318 49.1092 33.1334 49.1102 33.1324C49.1107 33.1319 49.1119 33.1307 49.1137 33.1289C49.1146 33.128 49.1157 33.1269 49.117 33.1256C49.1176 33.125 49.1183 33.1243 49.119 33.1236C49.1194 33.1232 49.12 33.1227 49.1201 33.1225C49.1207 33.1219 49.1213 33.1213 47 31C44.8787 28.8787 44.8793 28.8781 44.8799 28.8774C44.8801 28.8772 44.8808 28.8766 44.8812 28.8761C44.8821 28.8752 44.8831 28.8743 44.8841 28.8733C44.8861 28.8713 44.8883 28.8691 44.8907 28.8668C44.8954 28.862 44.901 28.8566 44.9073 28.8504C44.9198 28.838 44.9355 28.8228 44.9541 28.8049C44.9912 28.7691 45.0404 28.7225 45.1009 28.6667C45.2217 28.5552 45.389 28.4057 45.5976 28.231C46.0122 27.8839 46.605 27.4249 47.3355 26.9635C48.739 26.0771 50.9361 25 53.5 25V31Z" fill="white"/>
<defs>
<filter id="filter0_i" x="0" y="-4" width="80" height="80" filterUnits="userSpaceOnUse" color-interpolation-filters="sRGB">
<feFlood flood-opacity="0" result="BackgroundImageFix"/>
<feBlend mode="normal" in="SourceGraphic" in2="BackgroundImageFix" result="shape"/>
<feColorMatrix in="SourceAlpha" type="matrix" values="0 0 0 0 0 0 0 0 0 0 0 0 0 0 0 0 0 0 127 0" result="hardAlpha"/>
<feOffset dx="4" dy="-4"/>
<feGaussianBlur stdDeviation="4"/>
<feComposite in2="hardAlpha" operator="arithmetic" k2="-1" k3="1"/>
<feColorMatrix type="matrix" values="0 0 0 0 0 0 0 0 0 0 0 0 0 0 0 0 0 0 0.08 0"/>
<feBlend mode="normal" in2="shape" result="effect1_innerShadow"/>
</filter>
<linearGradient id="paint0_linear" x1="76" y1="-2.26498e-06" x2="-6.79493e-06" y2="76" gradientUnits="userSpaceOnUse">
<stop stop-color="white"/>
<stop offset="1" stop-color="white" stop-opacity="0"/>
</linearGradient>
</defs>
</svg>
