<svg width="76" height="76" viewBox="0 0 76 76" fill="none" xmlns="http://www.w3.org/2000/svg">
<g filter="url(#filter0_i)">
<circle cx="38" cy="38" r="38" fill="#FE7F66"/>
<circle cx="38" cy="38" r="38" fill="url(#paint0_linear)" fill-opacity="0.15"/>
</g>
<path opacity="0.5" d="M21.3372 45.7851L52.851 51.3418V51.3418C51.7002 57.8686 45.4763 62.2266 38.9495 61.0758L31.0711 59.6866C24.5443 58.5357 20.1863 52.3118 21.3372 45.7851V45.7851Z" fill="white"/>
<mask id="mask0" mask-type="alpha" maskUnits="userSpaceOnUse" x="21" y="45" width="32" height="17">
<path opacity="0.5" d="M21.1689 45.7851L52.8511 51.6856V51.6856C51.7932 58.0225 45.8156 62.206 39.4998 61.0298L30.6892 59.3889C24.3734 58.2127 20.111 52.122 21.1689 45.7851V45.7851Z" fill="white"/>
</mask>
<g mask="url(#mask0)">
<ellipse rx="6.09144" ry="5.90742" transform="matrix(0.982638 0.184472 -0.163362 0.986395 41.2665 59.4535)" fill="white"/>
</g>
<circle opacity="0.8" cx="54" cy="30" r="6" fill="white"/>
<rect opacity="0.8" x="14" y="27" width="16" height="6" rx="2" fill="white"/>
<defs>
<filter id="filter0_i" x="0" y="-4" width="80" height="80" filterUnits="userSpaceOnUse" color-interpolation-filters="sRGB">
<feFlood flood-opacity="0" result="BackgroundImageFix"/>
<feBlend mode="normal" in="SourceGraphic" in2="BackgroundImageFix" result="shape"/>
<feColorMatrix in="SourceAlpha" type="matrix" values="0 0 0 0 0 0 0 0 0 0 0 0 0 0 0 0 0 0 127 0" result="hardAlpha"/>
<feOffset dx="4" dy="-4"/>
<feGaussianBlur stdDeviation="4"/>
<feComposite in2="hardAlpha" operator="arithmetic" k2="-1" k3="1"/>
<feColorMatrix type="matrix" values="0 0 0 0 0 0 0 0 0 0 0 0 0 0 0 0 0 0 0.08 0"/>
<feBlend mode="normal" in2="shape" result="effect1_innerShadow"/>
</filter>
<linearGradient id="paint0_linear" x1="76" y1="-2.26498e-06" x2="-6.79493e-06" y2="76" gradientUnits="userSpaceOnUse">
<stop stop-color="white"/>
<stop offset="1" stop-color="white" stop-opacity="0"/>
</linearGradient>
</defs>
</svg>
