<svg width="76" height="76" viewBox="0 0 76 76" fill="none" xmlns="http://www.w3.org/2000/svg">
<g filter="url(#filter0_i)">
<circle cx="38" cy="38" r="38" fill="#FE7F66"/>
<circle cx="38" cy="38" r="38" fill="url(#paint0_linear)" fill-opacity="0.15"/>
</g>
<path opacity="0.5" d="M22 49H54V49C54 55.6274 48.6274 61 42 61H34C27.3726 61 22 55.6274 22 49V49Z" fill="white"/>
<mask id="mask0" mask-type="alpha" maskUnits="userSpaceOnUse" x="22" y="49" width="32" height="12">
<path opacity="0.5" d="M22 49H54V49C54 55.6274 48.6274 61 42 61H34C27.3726 61 22 55.6274 22 49V49Z" fill="white"/>
</mask>
<g mask="url(#mask0)">
<circle cx="38" cy="49" r="6" fill="white"/>
</g>
<circle opacity="0.8" r="6" transform="matrix(-1 0 0 1 54 30)" fill="white"/>
<path opacity="0.8" d="M31.0992 28.7953C32.2829 29.9547 32.3026 31.8541 31.1432 33.0377C29.9838 34.2214 28.0844 34.241 26.9008 33.0817L31.0992 28.7953ZM18.1213 33.1213C16.9497 34.2929 15.0503 34.2929 13.8787 33.1213C12.7071 31.9497 12.7071 30.0503 13.8787 28.8787L18.1213 33.1213ZM29 30.9385C26.9008 33.0817 26.9014 33.0822 26.902 33.0828C26.9021 33.083 26.9027 33.0836 26.9031 33.0839C26.9038 33.0846 26.9045 33.0853 26.9051 33.0859C26.9064 33.0872 26.9075 33.0883 26.9085 33.0892C26.9104 33.091 26.9116 33.0922 26.9121 33.0927C26.9132 33.0937 26.9116 33.0922 26.9075 33.0883C26.8991 33.0804 26.8805 33.063 26.8523 33.0375C26.7956 32.9863 26.7013 32.9033 26.5743 32.7991C26.3174 32.5885 25.9416 32.3035 25.4842 32.0205C24.5142 31.4204 23.4527 31 22.5 31V25C25.0473 25 27.2358 26.0488 28.6408 26.918C29.3709 27.3696 29.9638 27.8193 30.3789 28.1596C30.5877 28.3309 30.7552 28.4775 30.8762 28.5869C30.9369 28.6417 30.9862 28.6875 31.0235 28.7227C31.0421 28.7403 31.0578 28.7552 31.0705 28.7674C31.0768 28.7735 31.0823 28.7789 31.0871 28.7835C31.0895 28.7858 31.0918 28.788 31.0938 28.79C31.0948 28.7909 31.0957 28.7919 31.0966 28.7928C31.0971 28.7932 31.0977 28.7938 31.098 28.7941C31.0986 28.7947 31.0992 28.7953 29 30.9385ZM22.5 31C21.5639 31 20.511 31.4229 19.5395 32.0365C19.0825 32.3251 18.7066 32.6161 18.4492 32.8315C18.322 32.9381 18.2275 33.023 18.1706 33.0755C18.1422 33.1017 18.1235 33.1195 18.115 33.1277C18.1108 33.1318 18.1092 33.1334 18.1102 33.1324C18.1107 33.1319 18.1119 33.1307 18.1137 33.1289C18.1146 33.128 18.1157 33.1269 18.117 33.1256C18.1176 33.125 18.1183 33.1243 18.119 33.1236C18.1194 33.1232 18.12 33.1227 18.1201 33.1225C18.1207 33.1219 18.1213 33.1213 16 31C13.8787 28.8787 13.8793 28.8781 13.8799 28.8774C13.8801 28.8772 13.8808 28.8766 13.8812 28.8761C13.8821 28.8752 13.8831 28.8743 13.8841 28.8733C13.8861 28.8713 13.8883 28.8691 13.8907 28.8668C13.8954 28.862 13.901 28.8566 13.9073 28.8504C13.9198 28.838 13.9355 28.8228 13.9541 28.8049C13.9912 28.7691 14.0404 28.7225 14.1009 28.6667C14.2217 28.5552 14.389 28.4057 14.5976 28.231C15.0122 27.8839 15.605 27.4249 16.3355 26.9635C17.739 26.0771 19.9361 25 22.5 25V31Z" fill="white"/>
<defs>
<filter id="filter0_i" x="0" y="-4" width="80" height="80" filterUnits="userSpaceOnUse" color-interpolation-filters="sRGB">
<feFlood flood-opacity="0" result="BackgroundImageFix"/>
<feBlend mode="normal" in="SourceGraphic" in2="BackgroundImageFix" result="shape"/>
<feColorMatrix in="SourceAlpha" type="matrix" values="0 0 0 0 0 0 0 0 0 0 0 0 0 0 0 0 0 0 127 0" result="hardAlpha"/>
<feOffset dx="4" dy="-4"/>
<feGaussianBlur stdDeviation="4"/>
<feComposite in2="hardAlpha" operator="arithmetic" k2="-1" k3="1"/>
<feColorMatrix type="matrix" values="0 0 0 0 0 0 0 0 0 0 0 0 0 0 0 0 0 0 0.08 0"/>
<feBlend mode="normal" in2="shape" result="effect1_innerShadow"/>
</filter>
<linearGradient id="paint0_linear" x1="76" y1="-2.26498e-06" x2="-6.79493e-06" y2="76" gradientUnits="userSpaceOnUse">
<stop stop-color="white"/>
<stop offset="1" stop-color="white" stop-opacity="0"/>
</linearGradient>
</defs>
</svg>
