<svg width="76" height="76" viewBox="0 0 76 76" fill="none" xmlns="http://www.w3.org/2000/svg">
<g filter="url(#filter0_i)">
<circle cx="38" cy="38" r="38" fill="#FE7F66"/>
<circle cx="38" cy="38" r="38" fill="url(#paint0_linear)" fill-opacity="0.15"/>
</g>
<path opacity="0.8" d="M51.9843 58.7895C53.6096 58.4673 54.6659 56.8887 54.3438 55.2634C54.0217 53.6382 52.443 52.5818 50.8178 52.904L51.9843 58.7895ZM29.323 49.2074C28.0591 48.136 26.166 48.292 25.0946 49.5558C24.0232 50.8197 24.1792 52.7127 25.443 53.7842L29.323 49.2074ZM50.8178 52.904L44.9739 54.0623L46.1405 59.9478L51.9843 58.7895L50.8178 52.904ZM30.6755 50.3541L29.323 49.2074L25.443 53.7842L26.7956 54.9308L30.6755 50.3541ZM44.9739 54.0623C39.8917 55.0697 34.6276 53.7044 30.6755 50.3541L26.7956 54.9308C32.1425 59.4636 39.2646 61.3107 46.1405 59.9478L44.9739 54.0623Z" fill="white"/>
<circle opacity="0.8" cx="25" cy="30" r="6" fill="white"/>
<circle opacity="0.8" cx="57" cy="30" r="6" fill="white"/>
<defs>
<filter id="filter0_i" x="0" y="-4" width="80" height="80" filterUnits="userSpaceOnUse" color-interpolation-filters="sRGB">
<feFlood flood-opacity="0" result="BackgroundImageFix"/>
<feBlend mode="normal" in="SourceGraphic" in2="BackgroundImageFix" result="shape"/>
<feColorMatrix in="SourceAlpha" type="matrix" values="0 0 0 0 0 0 0 0 0 0 0 0 0 0 0 0 0 0 127 0" result="hardAlpha"/>
<feOffset dx="4" dy="-4"/>
<feGaussianBlur stdDeviation="4"/>
<feComposite in2="hardAlpha" operator="arithmetic" k2="-1" k3="1"/>
<feColorMatrix type="matrix" values="0 0 0 0 0 0 0 0 0 0 0 0 0 0 0 0 0 0 0.08 0"/>
<feBlend mode="normal" in2="shape" result="effect1_innerShadow"/>
</filter>
<linearGradient id="paint0_linear" x1="76" y1="-2.26498e-06" x2="-6.79493e-06" y2="76" gradientUnits="userSpaceOnUse">
<stop stop-color="white"/>
<stop offset="1" stop-color="white" stop-opacity="0"/>
</linearGradient>
</defs>
</svg>
