<svg width="76" height="76" viewBox="0 0 76 76" fill="none" xmlns="http://www.w3.org/2000/svg">
<g filter="url(#filter0_i)">
<circle cx="38" cy="38" r="38" fill="#FE7F66"/>
<circle cx="38" cy="38" r="38" fill="url(#paint0_linear)" fill-opacity="0.15"/>
</g>
<path opacity="0.5" d="M21.3372 45.7851L52.851 51.3418V51.3418C51.7002 57.8686 45.4763 62.2266 38.9495 61.0758L31.0711 59.6866C24.5443 58.5357 20.1863 52.3118 21.3372 45.7851V45.7851Z" fill="white"/>
<mask id="mask0" mask-type="alpha" maskUnits="userSpaceOnUse" x="21" y="45" width="32" height="17">
<path opacity="0.5" d="M21.1689 45.7852L52.8511 51.6856V51.6856C51.7932 58.0225 45.8156 62.2061 39.4998 61.0298L30.6892 59.3889C24.3734 58.2127 20.111 52.1221 21.1689 45.7852V45.7852Z" fill="white"/>
</mask>
<g mask="url(#mask0)">
<ellipse rx="6.09144" ry="5.90742" transform="matrix(0.982638 0.184472 -0.163362 0.986395 41.2665 59.4535)" fill="white"/>
</g>
<circle opacity="0.8" cx="54" cy="30" r="6" fill="white"/>
<path opacity="0.8" d="M14.9008 28.7953C13.7171 29.9547 13.6974 31.8541 14.8568 33.0377C16.0162 34.2214 17.9156 34.241 19.0992 33.0817L14.9008 28.7953ZM27.8787 33.1213C29.0503 34.2929 30.9497 34.2929 32.1213 33.1213C33.2929 31.9497 33.2929 30.0503 32.1213 28.8787L27.8787 33.1213ZM17 30.9385C19.0992 33.0817 19.0986 33.0822 19.098 33.0828C19.0979 33.083 19.0973 33.0836 19.0969 33.0839C19.0962 33.0846 19.0955 33.0853 19.0949 33.0859C19.0936 33.0872 19.0925 33.0883 19.0915 33.0892C19.0896 33.091 19.0884 33.0922 19.0879 33.0927C19.0868 33.0937 19.0884 33.0922 19.0925 33.0883C19.1009 33.0804 19.1195 33.063 19.1477 33.0375C19.2044 32.9863 19.2987 32.9033 19.4257 32.7991C19.6826 32.5885 20.0584 32.3035 20.5158 32.0205C21.4858 31.4204 22.5473 31 23.5 31V25C20.9527 25 18.7642 26.0488 17.3592 26.918C16.6291 27.3696 16.0362 27.8193 15.6211 28.1596C15.4123 28.3309 15.2448 28.4775 15.1238 28.5869C15.0631 28.6417 15.0138 28.6875 14.9765 28.7227C14.9579 28.7403 14.9422 28.7552 14.9295 28.7674C14.9232 28.7735 14.9177 28.7789 14.9129 28.7835C14.9105 28.7858 14.9082 28.788 14.9062 28.79C14.9052 28.7909 14.9043 28.7919 14.9034 28.7928C14.9029 28.7932 14.9023 28.7938 14.902 28.7941C14.9014 28.7947 14.9008 28.7953 17 30.9385ZM23.5 31C24.4361 31 25.489 31.4229 26.4605 32.0365C26.9175 32.3251 27.2934 32.6161 27.5508 32.8315C27.678 32.9381 27.7725 33.023 27.8294 33.0755C27.8578 33.1017 27.8765 33.1195 27.885 33.1277C27.8892 33.1318 27.8908 33.1334 27.8898 33.1324C27.8893 33.1319 27.8881 33.1307 27.8863 33.1289C27.8854 33.128 27.8843 33.1269 27.883 33.1256C27.8824 33.125 27.8817 33.1243 27.881 33.1236C27.8806 33.1232 27.88 33.1227 27.8799 33.1225C27.8793 33.1219 27.8787 33.1213 30 31C32.1213 28.8787 32.1207 28.8781 32.1201 28.8774C32.1199 28.8772 32.1192 28.8766 32.1188 28.8761C32.1179 28.8752 32.1169 28.8743 32.1159 28.8733C32.1139 28.8713 32.1117 28.8691 32.1093 28.8668C32.1046 28.862 32.099 28.8566 32.0927 28.8504C32.0802 28.838 32.0645 28.8228 32.0459 28.8049C32.0088 28.7691 31.9596 28.7225 31.8991 28.6667C31.7783 28.5552 31.611 28.4057 31.4024 28.231C30.9878 27.8839 30.395 27.4249 29.6645 26.9635C28.261 26.0771 26.0639 25 23.5 25V31Z" fill="white"/>
<defs>
<filter id="filter0_i" x="0" y="-4" width="80" height="80" filterUnits="userSpaceOnUse" color-interpolation-filters="sRGB">
<feFlood flood-opacity="0" result="BackgroundImageFix"/>
<feBlend mode="normal" in="SourceGraphic" in2="BackgroundImageFix" result="shape"/>
<feColorMatrix in="SourceAlpha" type="matrix" values="0 0 0 0 0 0 0 0 0 0 0 0 0 0 0 0 0 0 127 0" result="hardAlpha"/>
<feOffset dx="4" dy="-4"/>
<feGaussianBlur stdDeviation="4"/>
<feComposite in2="hardAlpha" operator="arithmetic" k2="-1" k3="1"/>
<feColorMatrix type="matrix" values="0 0 0 0 0 0 0 0 0 0 0 0 0 0 0 0 0 0 0.08 0"/>
<feBlend mode="normal" in2="shape" result="effect1_innerShadow"/>
</filter>
<linearGradient id="paint0_linear" x1="76" y1="-2.26498e-06" x2="-6.79493e-06" y2="76" gradientUnits="userSpaceOnUse">
<stop stop-color="white"/>
<stop offset="1" stop-color="white" stop-opacity="0"/>
</linearGradient>
</defs>
</svg>
